<svg width="25" height="24" viewBox="0 0 25 24" fill="none" xmlns="http://www.w3.org/2000/svg">
<g clip-path="url(#clip0_1_46442)">
<path d="M17.2034 22.5585L17.4857 20.8793C14.9149 20.8941 13.3099 16.5251 12.7452 13.018C17.3074 8.88668 20.6065 3.61114 18.1099 1.53065L16.9954 2.82353C18.2882 3.87863 15.8511 7.89101 11.6307 11.7251C7.38049 10.031 3.24923 9.34737 1.07957 11.8737L2.313 12.795C3.79906 11.2495 7.02383 11.7251 11.0511 13.3598C11.6753 17.1047 13.622 22.4248 17.2034 22.5585ZM14.4245 18.7393C22.1817 14.0582 23.3112 7.87616 22.687 5.85512L21.0523 6.34551C21.4981 7.78699 20.5471 13.1814 13.3099 17.4464L14.4245 18.7393ZM11.2294 23.5839L12.5372 22.2316C10.6796 21.8155 6.42941 17.9517 6.42941 11.2644L4.70559 11.3982C4.70559 17.9963 8.70309 22.3802 11.2294 23.5839ZM15.4201 8.21797L16.1334 6.65759C12.7303 4.69598 7.17244 2.89783 2.59536 5.91456L2.74396 7.66811C6.80092 4.62166 12.0468 6.27122 15.4201 8.21797ZM12.4926 0C5.95387 0 0.5 5.43901 0.5 11.9926C0.5 18.5461 5.96875 23.9851 12.5074 23.9851C19.061 23.9851 24.5 18.5461 24.5 11.9926C24.5 5.43901 19.0461 0 12.4926 0ZM12.4926 1.78328C18.0653 1.78328 22.7019 6.43468 22.7019 11.9926C22.7019 17.5505 18.0802 22.2019 12.5074 22.2019C6.94953 22.2019 2.29814 17.5505 2.29814 11.9926C2.29814 6.43468 6.93468 1.78328 12.4926 1.78328Z" fill="white"/>
</g>
<defs>
<clipPath id="clip0_1_46442">
<rect width="24" height="24" fill="white" transform="translate(0.5)"/>
</clipPath>
</defs>
</svg>
