<svg width="53" height="35" viewBox="0 0 53 35" fill="none" xmlns="http://www.w3.org/2000/svg">
<rect width="53" height="35" rx="10" fill="#E6AC53"/>
<path d="M20.3073 13.16C20.446 12.936 20.6326 12.824 20.8673 12.824C21.0166 12.824 21.1446 12.8827 21.2513 13C21.358 13.1067 21.4113 13.256 21.4113 13.448V22.424C21.4113 22.6053 21.3526 22.7493 21.2353 22.856C21.1286 22.952 20.9953 23 20.8353 23C20.6753 23 20.5366 22.952 20.4193 22.856C20.302 22.7493 20.2433 22.6053 20.2433 22.424V15.384L16.9793 20.488C16.8406 20.712 16.6593 20.824 16.4353 20.824C16.2113 20.824 16.0246 20.712 15.8753 20.488L12.6113 15.416V22.424C12.6113 22.6053 12.5526 22.7493 12.4353 22.856C12.3286 22.952 12.1953 23 12.0353 23C11.8753 23 11.7366 22.952 11.6193 22.856C11.502 22.7493 11.4433 22.6053 11.4433 22.424V13.464C11.4433 13.272 11.4966 13.1173 11.6033 13C11.7206 12.8827 11.854 12.824 12.0033 12.824C12.0993 12.824 12.1953 12.856 12.2913 12.92C12.3873 12.9733 12.4673 13.0587 12.5313 13.176L16.4353 19.24L20.3073 13.16ZM27.7594 14.744C28.2714 14.744 28.7514 14.8453 29.1994 15.048C29.6581 15.2507 30.0208 15.5707 30.2874 16.008V15.48C30.2874 15.3093 30.3354 15.1707 30.4314 15.064C30.5381 14.9573 30.6821 14.904 30.8634 14.904C31.0341 14.904 31.1728 14.9573 31.2794 15.064C31.3968 15.1707 31.4554 15.3093 31.4554 15.48V22.424C31.4554 22.5947 31.4021 22.7333 31.2954 22.84C31.1888 22.9467 31.0448 23 30.8634 23C30.6821 23 30.5381 22.952 30.4314 22.856C30.3354 22.7493 30.2874 22.6053 30.2874 22.424V21.736C30.0634 22.1733 29.7008 22.52 29.1994 22.776C28.7088 23.032 28.2074 23.16 27.6954 23.16C26.9168 23.16 26.2181 22.9893 25.5994 22.648C24.9808 22.3067 24.4901 21.816 24.1274 21.176C23.7754 20.5253 23.5994 19.768 23.5994 18.904C23.5994 18.0187 23.7808 17.2667 24.1434 16.648C24.5168 16.0187 25.0181 15.544 25.6474 15.224C26.2874 14.904 26.9914 14.744 27.7594 14.744ZM27.7114 22.056C28.4474 22.0347 29.0608 21.8053 29.5514 21.368C30.0421 20.9307 30.2874 20.3387 30.2874 19.592V18.328C30.2874 17.56 30.0528 16.9627 29.5834 16.536C29.1141 16.1093 28.5008 15.88 27.7434 15.848C27.1248 15.8373 26.5914 15.9707 26.1434 16.248C25.6954 16.5253 25.3541 16.8987 25.1194 17.368C24.8848 17.8373 24.7674 18.3493 24.7674 18.904C24.7674 19.6293 24.9274 20.2267 25.2474 20.696C25.5781 21.1653 25.9728 21.512 26.4314 21.736C26.8901 21.9493 27.3168 22.056 27.7114 22.056ZM41.8108 19.064C41.8108 19.8427 41.6401 20.5413 41.2988 21.16C40.9575 21.7787 40.4721 22.2693 39.8428 22.632C39.2241 22.984 38.5148 23.16 37.7148 23.16C37.1601 23.16 36.6481 23.0533 36.1788 22.84C35.7095 22.616 35.3575 22.3013 35.1228 21.896V25.336C35.1228 25.5067 35.0641 25.64 34.9468 25.736C34.8401 25.8427 34.7068 25.896 34.5468 25.896C34.3868 25.896 34.2481 25.8427 34.1308 25.736C34.0135 25.64 33.9548 25.5067 33.9548 25.336V15.464C33.9548 15.2933 34.0081 15.16 34.1148 15.064C34.2215 14.9573 34.3655 14.904 34.5468 14.904C34.9095 14.904 35.0908 15.0907 35.0908 15.464V16.152C35.3575 15.7147 35.7361 15.3733 36.2268 15.128C36.7175 14.872 37.2135 14.744 37.7148 14.744C38.4615 14.744 39.1441 14.9147 39.7628 15.256C40.3921 15.5973 40.8881 16.0987 41.2508 16.76C41.6241 17.4107 41.8108 18.1787 41.8108 19.064ZM37.8108 15.848C37.3201 15.848 36.8668 15.9493 36.4508 16.152C36.0455 16.3547 35.7201 16.6427 35.4748 17.016C35.2401 17.3893 35.1228 17.832 35.1228 18.344V19.608C35.1228 20.3013 35.3628 20.8773 35.8428 21.336C36.3228 21.7947 36.9308 22.04 37.6668 22.072C38.5628 22.072 39.2721 21.8 39.7948 21.256C40.3281 20.7013 40.6108 20.008 40.6428 19.176C40.6535 18.568 40.5361 18.008 40.2908 17.496C40.0455 16.984 39.7041 16.584 39.2668 16.296C38.8295 15.9973 38.3441 15.848 37.8108 15.848Z" fill="#423F39"/>
</svg>
