<svg width="18" height="18" viewBox="0 0 18 18" fill="none" xmlns="http://www.w3.org/2000/svg">
<path d="M8.98899 13.6224C9.2549 13.6224 9.48041 13.5306 9.66551 13.347C9.8506 13.1634 9.94314 12.9387 9.94314 12.6728C9.94314 12.4068 9.85134 12.1813 9.66774 11.9963C9.48413 11.8112 9.25937 11.7186 8.99347 11.7186C8.72756 11.7186 8.50206 11.8104 8.31697 11.994C8.13187 12.1776 8.03932 12.4024 8.03932 12.6683C8.03932 12.9342 8.13112 13.1597 8.31472 13.3448C8.49833 13.5299 8.72309 13.6224 8.98899 13.6224ZM9.00114 16.7234C7.93269 16.7234 6.92841 16.5206 5.98831 16.1151C5.0482 15.7097 4.23044 15.1593 3.53503 14.4642C2.8396 13.7691 2.28906 12.9516 1.8834 12.0119C1.47773 11.0722 1.2749 10.0681 1.2749 8.99967C1.2749 7.92802 1.47802 6.92074 1.88426 5.97781C2.2905 5.0349 2.84181 4.21469 3.5382 3.51718C4.2346 2.81968 5.05202 2.27134 5.99047 1.87218C6.92891 1.47302 7.93163 1.27344 8.99863 1.27344C10.0702 1.27344 11.0773 1.47294 12.0202 1.87194C12.963 2.27094 13.7832 2.81913 14.4809 3.5165C15.1785 4.21389 15.727 5.03396 16.1261 5.97673C16.5253 6.91949 16.7249 7.92682 16.7249 8.99872C16.7249 10.0706 16.5254 11.0745 16.1264 12.0104C15.7274 12.9462 15.1793 13.7625 14.482 14.4592C13.7848 15.1559 12.9649 15.7074 12.0224 16.1138C11.0799 16.5202 10.0728 16.7234 9.00114 16.7234ZM9.05583 5.71284C9.38007 5.71284 9.66863 5.80614 9.92152 5.99276C10.1744 6.17937 10.3009 6.43281 10.3009 6.75307C10.3009 7.02209 10.2201 7.26526 10.0585 7.48256C9.89701 7.69987 9.7124 7.89603 9.50471 8.07102C9.19496 8.33754 8.91151 8.62508 8.65436 8.93366C8.39722 9.24222 8.26144 9.59314 8.24701 9.98641C8.2422 10.1813 8.31215 10.3447 8.45686 10.4765C8.60158 10.6084 8.77874 10.6744 8.98835 10.6744C9.18986 10.6744 9.36067 10.6075 9.50077 10.4739C9.64087 10.3402 9.73736 10.1725 9.79025 9.97053C9.85275 9.68784 9.96947 9.43933 10.1404 9.22499C10.3113 9.01067 10.4964 8.80682 10.6957 8.61344C10.969 8.33452 11.2138 8.02527 11.4301 7.68569C11.6465 7.34611 11.7547 6.97647 11.7547 6.5768C11.7547 5.90757 11.483 5.36936 10.9398 4.96214C10.3965 4.55493 9.77631 4.35133 9.07916 4.35133C8.58317 4.35133 8.11495 4.46263 7.6745 4.68523C7.23406 4.90781 6.87875 5.22728 6.60855 5.64363C6.51528 5.78497 6.48712 5.93868 6.52406 6.10475C6.561 6.27081 6.64973 6.40468 6.79025 6.50636C6.96911 6.62254 7.16191 6.65179 7.36863 6.59409C7.57536 6.5364 7.7542 6.42294 7.90516 6.25372C8.05709 6.08159 8.22848 5.94842 8.41935 5.85419C8.61021 5.75996 8.82237 5.71284 9.05583 5.71284Z" fill="white"/>
</svg>
