<svg width="23" height="22" viewBox="0 0 23 22" fill="none" xmlns="http://www.w3.org/2000/svg">
<g clip-path="url(#clip0_248_3062)">
<path d="M19.8337 1.59766V1.63735H19.5559C19.5261 2.5502 19.4864 3.46306 19.4567 4.38584C19.4368 4.86211 19.3475 5.41776 19.2979 5.84442C19.2086 6.59852 19.1689 6.82673 19.1491 6.91603C19.1094 7.16409 19.0102 7.67013 18.8216 8.30516C18.7621 8.52346 18.5835 9.08903 18.266 9.85305C17.8492 10.8354 17.4127 11.6093 17.2737 11.8474C16.7479 12.7107 14.6146 15.4294 11.4692 15.4294C11.4692 15.4294 7.87728 15.3897 5.58522 11.6291C5.06926 10.7758 4.6426 9.69429 4.6426 9.69429C4.41439 9.1188 4.29532 8.68221 4.15641 8.18609C3.66029 6.44968 3.54122 5.15978 3.50153 4.82242C3.46184 4.37591 3.442 3.99886 3.43207 3.74088C3.43207 3.02647 3.442 2.32199 3.45192 1.60758H3.01534H19.8436L19.8337 1.59766Z" stroke="white" stroke-width="1.6868" stroke-linecap="round" stroke-linejoin="round"/>
<path d="M0.982886 5.35938C0.318089 6.64928 0.496691 8.14755 1.45916 9.23901C2.77883 10.7274 4.8526 10.648 5.04113 10.6381" stroke="white" stroke-width="1.17084" stroke-linecap="round" stroke-linejoin="round"/>
<path d="M22.0766 5.35938C22.672 6.60959 22.4735 8.04833 21.5507 9.1001C20.241 10.5984 18.1672 10.519 17.9886 10.5091" stroke="white" stroke-width="1.16091" stroke-linecap="round" stroke-linejoin="round"/>
<path d="M8.50284 14.5234C8.88981 14.8013 9.61414 15.4264 9.90189 16.4385C10.3385 18.0062 9.54469 19.8517 7.87773 21.0027" stroke="white" stroke-width="1.6868" stroke-linecap="round" stroke-linejoin="round"/>
<path d="M15.101 14.1758C14.843 14.4635 13.9202 15.555 13.9004 17.1823C13.8805 18.6508 14.6148 19.6926 14.8926 20.0597C15.2002 20.4864 15.5276 20.7841 15.7559 20.9825" stroke="white" stroke-width="1.6868" stroke-linecap="round" stroke-linejoin="round"/>
<path d="M0.98288 5.35938H3.81075" stroke="white" stroke-width="1.17084" stroke-linecap="round" stroke-linejoin="round"/>
<path d="M19.0708 5.35938H22.0772" stroke="white" stroke-width="1.16091" stroke-linecap="round" stroke-linejoin="round"/>
<path d="M8.0464 21.0781H15.9843" stroke="white" stroke-width="1.54789" stroke-linecap="round"/>
</g>
<defs>
<clipPath id="clip0_248_3062">
<rect width="23" height="21.0949" fill="white" transform="translate(0 0.75)"/>
</clipPath>
</defs>
</svg>
