<svg width="26" height="22" viewBox="0 0 26 22" fill="none" xmlns="http://www.w3.org/2000/svg">
<path d="M5.81934 21.1572C4.00879 21.1572 3.10352 20.5391 3.10352 19.3027C3.10352 18.6875 3.25 18.0459 3.54297 17.3779C3.8418 16.71 4.27539 16.0625 4.84375 15.4355C5.41211 14.8086 6.09766 14.2432 6.90039 13.7393C7.70312 13.2295 8.61719 12.8252 9.64258 12.5264C10.668 12.2217 11.7842 12.0693 12.9912 12.0693C14.2041 12.0693 15.3232 12.2217 16.3486 12.5264C17.374 12.8252 18.2881 13.2295 19.0908 13.7393C19.8936 14.2432 20.5791 14.8086 21.1475 15.4355C21.7158 16.0625 22.1465 16.71 22.4395 17.3779C22.7383 18.0459 22.8877 18.6875 22.8877 19.3027C22.8877 20.5391 21.9824 21.1572 20.1719 21.1572H5.81934ZM5.49414 19.4258H20.4971C20.6846 19.4258 20.8164 19.3965 20.8926 19.3379C20.9688 19.2793 21.0068 19.1826 21.0068 19.0479C21.0068 18.667 20.8926 18.2422 20.6641 17.7734C20.4355 17.3105 20.0986 16.8477 19.6533 16.3848C19.2139 15.916 18.6689 15.4883 18.0186 15.1016C17.374 14.709 16.6299 14.3955 15.7861 14.1611C14.9482 13.9268 14.0166 13.8096 12.9912 13.8096C11.9717 13.8096 11.04 13.9268 10.1963 14.1611C9.3584 14.3955 8.61426 14.709 7.96387 15.1016C7.31934 15.4883 6.77441 15.916 6.3291 16.3848C5.88965 16.8477 5.55566 17.3105 5.32715 17.7734C5.09863 18.2422 4.98438 18.667 4.98438 19.0479C4.98438 19.1826 5.02246 19.2793 5.09863 19.3379C5.1748 19.3965 5.30664 19.4258 5.49414 19.4258ZM13.0088 10.6631C12.3291 10.6631 11.6934 10.5283 11.1016 10.2588C10.5156 9.9834 9.99707 9.60254 9.5459 9.11621C9.10059 8.62988 8.75195 8.06738 8.5 7.42871C8.24805 6.79004 8.12207 6.10156 8.12207 5.36328C8.12207 4.64844 8.24805 3.97754 8.5 3.35059C8.75195 2.71777 9.10059 2.16113 9.5459 1.68066C9.99707 1.2002 10.5186 0.825195 11.1104 0.555664C11.7021 0.286133 12.335 0.151367 13.0088 0.151367C13.6768 0.151367 14.3066 0.286133 14.8984 0.555664C15.4902 0.825195 16.0088 1.19727 16.4541 1.67188C16.9053 2.14648 17.2568 2.69727 17.5088 3.32422C17.7607 3.95117 17.8867 4.625 17.8867 5.3457C17.8867 6.08398 17.7607 6.77539 17.5088 7.41992C17.2568 8.05859 16.9053 8.62109 16.4541 9.10742C16.0088 9.59375 15.4902 9.97461 14.8984 10.25C14.3125 10.5254 13.6826 10.6631 13.0088 10.6631ZM13.0088 8.94043C13.5654 8.94043 14.0781 8.78223 14.5469 8.46582C15.0156 8.14941 15.3877 7.71875 15.6631 7.17383C15.9443 6.62891 16.085 6.01953 16.085 5.3457C16.085 4.68945 15.9443 4.10059 15.6631 3.5791C15.3877 3.05176 15.0156 2.63867 14.5469 2.33984C14.084 2.03516 13.5713 1.88281 13.0088 1.88281C12.4463 1.88281 11.9307 2.03809 11.4619 2.34863C10.999 2.65332 10.627 3.06934 10.3457 3.59668C10.0645 4.11816 9.92383 4.70703 9.92383 5.36328C9.92383 6.03711 10.0645 6.64648 10.3457 7.19141C10.627 7.73047 10.999 8.1582 11.4619 8.47461C11.9307 8.78516 12.4463 8.94043 13.0088 8.94043Z" fill="white"/>
</svg>
