<svg width="25" height="24" viewBox="0 0 25 24" fill="none" xmlns="http://www.w3.org/2000/svg">
<path d="M21.5 19.0017V12.2687C21.5 11.7262 21.3896 11.1893 21.1756 10.6907C20.9616 10.1922 20.6483 9.7424 20.255 9.36872L13.878 3.31172C13.5063 2.95861 13.0132 2.76172 12.5005 2.76172C11.9878 2.76172 11.4947 2.95861 11.123 3.31172L4.745 9.36872C4.35165 9.7424 4.03844 10.1922 3.8244 10.6907C3.61037 11.1893 3.5 11.7262 3.5 12.2687V19.0017C3.5 19.5322 3.71071 20.0409 4.08579 20.4159C4.46086 20.791 4.96957 21.0017 5.5 21.0017H19.5C20.0304 21.0017 20.5391 20.791 20.9142 20.4159C21.2893 20.0409 21.5 19.5322 21.5 19.0017Z" stroke="url(#paint0_linear_584_1039)" stroke-width="2" stroke-linecap="round" stroke-linejoin="round"/>
<defs>
<linearGradient id="paint0_linear_584_1039" x1="12.5" y1="2.76172" x2="12.5" y2="21.0017" gradientUnits="userSpaceOnUse">
<stop stop-color="#F4E998"/>
<stop offset="1" stop-color="#5CF08D"/>
</linearGradient>
</defs>
</svg>
