<svg width="25" height="25" viewBox="0 0 25 25" fill="none" xmlns="http://www.w3.org/2000/svg">
<rect width="24" height="24" transform="translate(0.5 0.5)" fill="#1877F2"/>
<path d="M24 12.5694C24 6.21811 18.8513 1.06939 12.5 1.06939C6.14872 1.06939 1 6.21811 1 12.5694C1 18.3094 5.20538 23.067 10.7031 23.9297V15.8936H7.7832V12.5694H10.7031V10.0358C10.7031 7.15361 12.42 5.56158 15.0468 5.56158C16.305 5.56158 17.6211 5.78619 17.6211 5.78619V8.61627H16.171C14.7424 8.61627 14.2969 9.50273 14.2969 10.4122V12.5694H17.4863L16.9765 15.8936H14.2969V23.9297C19.7946 23.067 24 18.3094 24 12.5694Z" fill="white"/>
</svg>
