<svg width="44" height="73" viewBox="0 0 44 73" fill="none" xmlns="http://www.w3.org/2000/svg">
<path d="M44 22C44 34.1503 30.36 57.2 22 72.6C13.64 57.2 0 34.1503 0 22C0 9.84974 9.84974 0 22 0C34.1503 0 44 9.84974 44 22Z" fill="#E6AC53"/>
<path d="M30.3977 16V16.0391H30.1131C30.0803 16.9827 30.0475 17.9263 30.0147 18.8715C29.9975 19.3675 29.9026 19.9324 29.8508 20.3768C29.7576 21.1545 29.718 21.3908 29.7024 21.4785C29.6576 21.7367 29.5592 22.2578 29.3729 22.9103C29.3091 23.1341 29.1365 23.7209 28.8156 24.5048C28.3998 25.5173 27.9599 26.3122 27.8132 26.561C27.2784 27.4561 25.1338 30.2572 21.9627 30.2572C21.9627 30.2572 18.343 30.2212 16.0311 26.3373C15.5066 25.4547 15.0787 24.3405 15.0787 24.3405C14.8493 23.7443 14.725 23.2968 14.5853 22.7898C14.0901 20.9965 13.9607 19.6711 13.9279 19.3174C13.8865 18.8527 13.8693 18.4662 13.8624 18.2001C13.8676 17.4678 13.8727 16.7339 13.8779 16.0016H13.4414L30.3977 16Z" stroke="white" stroke-width="1.82683" stroke-linecap="round" stroke-linejoin="round"/>
<path d="M11.3993 19.8789C10.7272 21.2085 10.9134 22.7567 11.8839 23.8795C13.2137 25.4159 15.304 25.3336 15.4914 25.3227" stroke="white" stroke-width="1.26398" stroke-linecap="round" stroke-linejoin="round"/>
<path d="M32.6575 19.8711C33.2604 21.1603 33.0579 22.6396 32.125 23.7267C30.8001 25.2709 28.7163 25.191 28.5352 25.1812" stroke="white" stroke-width="1.26155" stroke-linecap="round" stroke-linejoin="round"/>
<path d="M18.8513 29.3477C19.3309 29.6606 20.1487 30.3069 20.3954 31.3053C20.806 32.964 19.4844 34.9842 17 35.9747" stroke="white" stroke-width="1.82683" stroke-linecap="round" stroke-linejoin="round"/>
<path d="M25 29.3477C24.5583 29.6043 24.5632 29.7577 24.3061 30.8483C23.9231 32.4742 24.4211 35.1514 27.0004 35.9995" stroke="white" stroke-width="1.82683" stroke-linecap="round" stroke-linejoin="round"/>
<path d="M11.3984 19.8789H14.2479" stroke="white" stroke-width="1.26398" stroke-linecap="round" stroke-linejoin="round"/>
<path d="M29.6328 19.8789H32.6591" stroke="white" stroke-width="1.26155" stroke-linecap="round" stroke-linejoin="round"/>
<path d="M17.5 36H26.5" stroke="white" stroke-width="1.82683" stroke-linecap="round"/>
</svg>
