<svg width="19" height="18" viewBox="0 0 19 18" fill="none" xmlns="http://www.w3.org/2000/svg">
<path d="M9.02441 1.08203C9.17409 0.621376 9.82591 0.621376 9.97559 1.08203L11.3818 5.41016C11.5827 6.02803 12.1589 6.44629 12.8086 6.44629H17.3594C17.8437 6.44629 18.0451 7.06586 17.6533 7.35059L13.9717 10.0254C13.4459 10.4074 13.2259 11.0851 13.4268 11.7031L14.833 16.0312C14.9826 16.4919 14.4553 16.8745 14.0635 16.5898L10.3818 13.915C9.8561 13.5331 9.1439 13.5331 8.61816 13.915L4.93652 16.5898C4.5447 16.8745 4.01743 16.4919 4.16699 16.0312L5.57324 11.7031C5.77405 11.0851 5.55405 10.4074 5.02832 10.0254L1.34668 7.35059C0.954934 7.06586 1.1563 6.44629 1.64062 6.44629H6.19141C6.84114 6.44629 7.41727 6.02803 7.61816 5.41016L9.02441 1.08203Z" fill="#E6AC53" stroke="#E6AC53"/>
</svg>
