<svg width="24" height="24" viewBox="0 0 24 24" fill="none" xmlns="http://www.w3.org/2000/svg">
<path d="M21 19.0017V12.2687C21 11.7262 20.8896 11.1893 20.6756 10.6907C20.4616 10.1922 20.1483 9.7424 19.755 9.36872L13.378 3.31172C13.0063 2.95861 12.5132 2.76172 12.0005 2.76172C11.4878 2.76172 10.9947 2.95861 10.623 3.31172L4.245 9.36872C3.85165 9.7424 3.53844 10.1922 3.3244 10.6907C3.11037 11.1893 3 11.7262 3 12.2687V19.0017C3 19.5322 3.21071 20.0409 3.58579 20.4159C3.96086 20.791 4.46957 21.0017 5 21.0017H19C19.5304 21.0017 20.0391 20.791 20.4142 20.4159C20.7893 20.0409 21 19.5322 21 19.0017Z" stroke="white" stroke-width="2" stroke-linecap="round" stroke-linejoin="round"/>
</svg>
