<svg width="44" height="73" viewBox="0 0 44 73" fill="none" xmlns="http://www.w3.org/2000/svg">
<path d="M44 22C44 34.1503 30.36 57.2 22 72.6C13.64 57.2 0 34.1503 0 22C0 9.84974 9.84974 0 22 0C34.1503 0 44 9.84974 44 22Z" fill="#578D83"/>
<path d="M27.2198 34.4245L27.546 32.4842C24.5755 32.5013 22.721 27.4532 22.0686 23.4009C27.34 18.6274 31.1519 12.5318 28.2672 10.128L26.9794 11.6218C28.4732 12.8409 25.6572 17.477 20.7808 21.907C15.8699 19.9496 11.0965 19.1597 8.58958 22.0788L10.0147 23.1433C11.7318 21.3576 15.4578 21.907 20.1111 23.7958C20.8323 28.1228 23.0816 34.2699 27.2198 34.4245ZM24.0089 30.0116C32.9719 24.6028 34.2769 17.4598 33.5557 15.1246L31.667 15.6912C32.1821 17.3568 31.0831 23.5897 22.721 28.5177L24.0089 30.0116ZM20.3171 35.6092L21.8282 34.0467C19.6818 33.5659 14.771 29.1016 14.771 21.3747L12.7792 21.5293C12.7792 29.1531 17.3981 34.2184 20.3171 35.6092ZM25.1593 17.8548L25.9835 16.0518C22.0514 13.7853 15.6295 11.7077 10.341 15.1933L10.5127 17.2194C15.2003 13.6994 21.2616 15.6054 25.1593 17.8548ZM21.7767 8.35938C14.2216 8.35938 7.91992 14.6438 7.91992 22.2161C7.91992 29.7884 14.2387 36.0728 21.7938 36.0728C29.3661 36.0728 35.6506 29.7884 35.6506 22.2161C35.6506 14.6438 29.3489 8.35938 21.7767 8.35938ZM21.7767 10.4199C28.2156 10.4199 33.5729 15.7943 33.5729 22.2161C33.5729 28.6379 28.2328 34.0124 21.7938 34.0124C15.372 34.0124 9.99757 28.6379 9.99757 22.2161C9.99757 15.7943 15.3548 10.4199 21.7767 10.4199Z" fill="white"/>
</svg>
