<svg width="25" height="25" viewBox="0 0 25 25" fill="none" xmlns="http://www.w3.org/2000/svg">
<path fill-rule="evenodd" clip-rule="evenodd" d="M23.54 12.7624C23.54 11.947 23.4668 11.1629 23.3309 10.4102H12.5V14.8586H18.6891C18.4225 16.2961 17.6123 17.514 16.3943 18.3295V21.2149H20.1109C22.2855 19.2129 23.54 16.2647 23.54 12.7624Z" fill="#4285F4"/>
<path fill-rule="evenodd" clip-rule="evenodd" d="M12.4995 23.9986C15.6045 23.9986 18.2077 22.9688 20.1104 21.2125L16.3938 18.327C15.364 19.017 14.0467 19.4247 12.4995 19.4247C9.50425 19.4247 6.96902 17.4018 6.0647 14.6836H2.22266V17.6631C4.11493 21.4215 8.00402 23.9986 12.4995 23.9986Z" fill="#34A853"/>
<path fill-rule="evenodd" clip-rule="evenodd" d="M6.06523 14.6855C5.83523 13.9955 5.70455 13.2584 5.70455 12.5005C5.70455 11.7425 5.83523 11.0055 6.06523 10.3155V7.33594H2.22318C1.44432 8.88844 1 10.6448 1 12.5005C1 14.3562 1.44432 16.1125 2.22318 17.665L6.06523 14.6855Z" fill="#FBBC05"/>
<path fill-rule="evenodd" clip-rule="evenodd" d="M12.4995 5.57386C14.1879 5.57386 15.7038 6.15409 16.8956 7.29364L20.194 3.99523C18.2024 2.13955 15.5992 1 12.4995 1C8.00402 1 4.11493 3.57705 2.22266 7.33545L6.0647 10.315C6.96902 7.59682 9.50425 5.57386 12.4995 5.57386Z" fill="#EA4335"/>
</svg>
