<svg width="21" height="22" viewBox="0 0 21 22" fill="none" xmlns="http://www.w3.org/2000/svg">
<path d="M3.31934 21.1572C1.50879 21.1572 0.603516 20.5391 0.603516 19.3027C0.603516 18.6875 0.75 18.0459 1.04297 17.3779C1.3418 16.71 1.77539 16.0625 2.34375 15.4355C2.91211 14.8086 3.59766 14.2432 4.40039 13.7393C5.20312 13.2295 6.11719 12.8252 7.14258 12.5264C8.16797 12.2217 9.28418 12.0693 10.4912 12.0693C11.7041 12.0693 12.8232 12.2217 13.8486 12.5264C14.874 12.8252 15.7881 13.2295 16.5908 13.7393C17.3936 14.2432 18.0791 14.8086 18.6475 15.4355C19.2158 16.0625 19.6465 16.71 19.9395 17.3779C20.2383 18.0459 20.3877 18.6875 20.3877 19.3027C20.3877 20.5391 19.4824 21.1572 17.6719 21.1572H3.31934ZM2.99414 19.4258H17.9971C18.1846 19.4258 18.3164 19.3965 18.3926 19.3379C18.4688 19.2793 18.5068 19.1826 18.5068 19.0479C18.5068 18.667 18.3926 18.2422 18.1641 17.7734C17.9355 17.3105 17.5986 16.8477 17.1533 16.3848C16.7139 15.916 16.1689 15.4883 15.5186 15.1016C14.874 14.709 14.1299 14.3955 13.2861 14.1611C12.4482 13.9268 11.5166 13.8096 10.4912 13.8096C9.47168 13.8096 8.54004 13.9268 7.69629 14.1611C6.8584 14.3955 6.11426 14.709 5.46387 15.1016C4.81934 15.4883 4.27441 15.916 3.8291 16.3848C3.38965 16.8477 3.05566 17.3105 2.82715 17.7734C2.59863 18.2422 2.48438 18.667 2.48438 19.0479C2.48438 19.1826 2.52246 19.2793 2.59863 19.3379C2.6748 19.3965 2.80664 19.4258 2.99414 19.4258ZM10.5088 10.6631C9.8291 10.6631 9.19336 10.5283 8.60156 10.2588C8.01562 9.9834 7.49707 9.60254 7.0459 9.11621C6.60059 8.62988 6.25195 8.06738 6 7.42871C5.74805 6.79004 5.62207 6.10156 5.62207 5.36328C5.62207 4.64844 5.74805 3.97754 6 3.35059C6.25195 2.71777 6.60059 2.16113 7.0459 1.68066C7.49707 1.2002 8.01855 0.825195 8.61035 0.555664C9.20215 0.286133 9.83496 0.151367 10.5088 0.151367C11.1768 0.151367 11.8066 0.286133 12.3984 0.555664C12.9902 0.825195 13.5088 1.19727 13.9541 1.67188C14.4053 2.14648 14.7568 2.69727 15.0088 3.32422C15.2607 3.95117 15.3867 4.625 15.3867 5.3457C15.3867 6.08398 15.2607 6.77539 15.0088 7.41992C14.7568 8.05859 14.4053 8.62109 13.9541 9.10742C13.5088 9.59375 12.9902 9.97461 12.3984 10.25C11.8125 10.5254 11.1826 10.6631 10.5088 10.6631ZM10.5088 8.94043C11.0654 8.94043 11.5781 8.78223 12.0469 8.46582C12.5156 8.14941 12.8877 7.71875 13.1631 7.17383C13.4443 6.62891 13.585 6.01953 13.585 5.3457C13.585 4.68945 13.4443 4.10059 13.1631 3.5791C12.8877 3.05176 12.5156 2.63867 12.0469 2.33984C11.584 2.03516 11.0713 1.88281 10.5088 1.88281C9.94629 1.88281 9.43066 2.03809 8.96191 2.34863C8.49902 2.65332 8.12695 3.06934 7.8457 3.59668C7.56445 4.11816 7.42383 4.70703 7.42383 5.36328C7.42383 6.03711 7.56445 6.64648 7.8457 7.19141C8.12695 7.73047 8.49902 8.1582 8.96191 8.47461C9.43066 8.78516 9.94629 8.94043 10.5088 8.94043Z" fill="url(#paint0_linear_33_4440)"/>
<defs>
<linearGradient id="paint0_linear_33_4440" x1="10.5" y1="0" x2="10.5" y2="21" gradientUnits="userSpaceOnUse">
<stop stop-color="#F4E998"/>
<stop offset="1" stop-color="#5CF08D"/>
</linearGradient>
</defs>
</svg>
