<svg width="23" height="23" viewBox="0 0 23 23" fill="none" xmlns="http://www.w3.org/2000/svg">
<path d="M11.0244 3.08203C11.1741 2.62138 11.8259 2.62138 11.9756 3.08203L13.3818 7.41016C13.5827 8.02803 14.1589 8.44629 14.8086 8.44629H19.3594C19.8437 8.44629 20.0451 9.06586 19.6533 9.35059L15.9717 12.0254C15.4459 12.4074 15.2259 13.0851 15.4268 13.7031L16.833 18.0312C16.9826 18.4919 16.4553 18.8745 16.0635 18.5898L12.3818 15.915C11.8561 15.5331 11.1439 15.5331 10.6182 15.915L6.93652 18.5898C6.5447 18.8745 6.01743 18.4919 6.16699 18.0312L7.57324 13.7031C7.77405 13.0851 7.55405 12.4074 7.02832 12.0254L3.34668 9.35059C2.95493 9.06586 3.1563 8.44629 3.64062 8.44629H8.19141C8.84114 8.44629 9.41727 8.02803 9.61816 7.41016L11.0244 3.08203Z" stroke="#E6AC53"/>
</svg>
