<svg width="24" height="24" viewBox="0 0 24 24" fill="none" xmlns="http://www.w3.org/2000/svg">
<g clip-path="url(#clip0_33_4420)">
<path d="M16.7034 22.5585L16.9857 20.8793C14.4149 20.8941 12.8099 16.5251 12.2452 13.018C16.8074 8.88668 20.1065 3.61114 17.6099 1.53065L16.4954 2.82353C17.7882 3.87863 15.3511 7.89101 11.1307 11.7251C6.88049 10.031 2.74923 9.34737 0.579568 11.8737L1.813 12.795C3.29906 11.2495 6.52383 11.7251 10.5511 13.3598C11.1753 17.1047 13.122 22.4248 16.7034 22.5585ZM13.9245 18.7393C21.6817 14.0582 22.8112 7.87616 22.187 5.85512L20.5523 6.34551C20.9981 7.78699 20.0471 13.1814 12.8099 17.4464L13.9245 18.7393ZM10.7294 23.5839L12.0372 22.2316C10.1796 21.8155 5.92941 17.9517 5.92941 11.2644L4.20559 11.3982C4.20559 17.9963 8.20309 22.3802 10.7294 23.5839ZM14.9201 8.21797L15.6334 6.65759C12.2303 4.69598 6.67244 2.89783 2.09536 5.91456L2.24396 7.66811C6.30092 4.62166 11.5468 6.27122 14.9201 8.21797ZM11.9926 0C5.45387 0 0 5.43901 0 11.9926C0 18.5461 5.46875 23.9851 12.0074 23.9851C18.561 23.9851 24 18.5461 24 11.9926C24 5.43901 18.5461 0 11.9926 0ZM11.9926 1.78328C17.5653 1.78328 22.2019 6.43468 22.2019 11.9926C22.2019 17.5505 17.5802 22.2019 12.0074 22.2019C6.44953 22.2019 1.79814 17.5505 1.79814 11.9926C1.79814 6.43468 6.43468 1.78328 11.9926 1.78328Z" fill="url(#paint0_linear_33_4420)"/>
</g>
<defs>
<linearGradient id="paint0_linear_33_4420" x1="12" y1="0" x2="12" y2="23.9851" gradientUnits="userSpaceOnUse">
<stop stop-color="#F4E998"/>
<stop offset="1" stop-color="#5CF08D"/>
</linearGradient>
<clipPath id="clip0_33_4420">
<rect width="24" height="24" fill="white"/>
</clipPath>
</defs>
</svg>
